inDegrees=no
num_controls=7
num_derivatives=13
num_iterations=121
num_multipliers=7
num_parameters=0
num_slacks=7
num_states=26
objective=5.303520
objective_accelerations=0.588252
objective_balance=0.055347
objective_effort=0.311516
objective_height=4.326621
objective_ligament=0.021785
solver_duration=1357.053822
status=Solve_Succeeded
success=true
DataType=double
version=3
OpenSimVersion=4.4-2022-07-23-0e9fedc
endheader
time	/jointset/ground_pelvis/pelvis_tilt/value	/jointset/ground_pelvis/pelvis_tx/value	/jointset/ground_pelvis/pelvis_ty/value	/jointset/hip_l/hip_flexion_l/value	/jointset/hip_l/hip_adduction_l/value	/jointset/hip_l/hip_rotation_l/value	/jointset/back/lumbar_extension/value	/jointset/patellofemoral_l/patellar_flexion_l/value	/jointset/knee_l/knee_flexion_l/value	/jointset/knee_l/knee_adduction_l/value	/jointset/knee_l/knee_rotation_l/value	/jointset/ankle_l/ankle_angle_l/value	/jointset/subtalar_l/subtalar_angle_l/value	/jointset/ground_pelvis/pelvis_tilt/speed	/jointset/ground_pelvis/pelvis_tx/speed	/jointset/ground_pelvis/pelvis_ty/speed	/jointset/hip_l/hip_flexion_l/speed	/jointset/hip_l/hip_adduction_l/speed	/jointset/hip_l/hip_rotation_l/speed	/jointset/back/lumbar_extension/speed	/jointset/patellofemoral_l/patellar_flexion_l/speed	/jointset/knee_l/knee_flexion_l/speed	/jointset/knee_l/knee_adduction_l/speed	/jointset/knee_l/knee_rotation_l/speed	/jointset/ankle_l/ankle_angle_l/speed	/jointset/subtalar_l/subtalar_angle_l/speed	/forceset/tau_hip_flexion_l	/forceset/tau_hip_adduction_l	/forceset/tau_hip_rotation_l	/forceset/tau_knee_flexion_l	/forceset/tau_ankle_angle_l	/forceset/tau_subtalar_angle_l	/forceset/tau_lumbar_extension	lambda_cid13_p0	lambda_cid13_p1	lambda_cid13_p2	lambda_cid13_p3	lambda_cid13_p4	lambda_cid13_p5	lambda_cid14_p0	/jointset/ground_pelvis/pelvis_tilt/accel	/jointset/ground_pelvis/pelvis_tx/accel	/jointset/ground_pelvis/pelvis_ty/accel	/jointset/hip_l/hip_flexion_l/accel	/jointset/hip_l/hip_adduction_l/accel	/jointset/hip_l/hip_rotation_l/accel	/jointset/back/lumbar_extension/accel	/jointset/patellofemoral_l/patellar_flexion_l/accel	/jointset/knee_l/knee_flexion_l/accel	/jointset/knee_l/knee_adduction_l/accel	/jointset/knee_l/knee_rotation_l/accel	/jointset/ankle_l/ankle_angle_l/accel	/jointset/subtalar_l/subtalar_angle_l/accel	gamma_cid13_p0	gamma_cid13_p1	gamma_cid13_p2	gamma_cid13_p3	gamma_cid13_p4	gamma_cid13_p5	gamma_cid14_p0
1.5	-0.4588107690787359	-0.06707475654040751	0.7726224474194657	1.141768149704788	-0.4272695366700202	-0.274250455582555	-0.2279224509387129	0.6223870296026121	0.6223870296025855	-0.1745255287338488	-0.1510580369009969	-0.02429869062295644	-0.08922395403069815	0.9390822229471972	0.3973529146489195	0.4714725114391258	-2.529729849299893	0.2267995216387536	-0.5815558525044893	0.30340405472879	-1.51726313978722	-1.517263139787433	3.021610384267767e-05	0.1125821373385017	-0.008672728313554427	0.2431182553931508	-0.2176240647438321	0.02652320238551134	0.0009116953367758263	-0.1499602837666087	0.07656668402003976	0.05144918146273691	0.1958986567307775	-8.78862985029439	-23.44344750969361	6.414718214769204	-7.311253720812999	-523.321834765489	-61.97933546584085	-33.44813084379604	0.695795690959633	0.7320319806295816	-0.3768209731062941	-1.480953309649907	0.5068128504349764	-0.07312779602123071	1.526261968999385	-1.044563721547835	-1.044563721547828	0.01549891692567652	0.2263597403909288	-0.08687952815518978	0.5182195394002227	-3.755116729624272e-08	7.513683044017499e-07	9.497197646816561e-08	2.608870137433397e-07	1.653269576367558e-07	-2.061331827778827e-07	1.074082501907394e-07
1.51	-0.4493854859240347	-0.06306497909408948	0.7773174000280374	1.116398824395368	-0.4249771824609193	-0.2800704368321429	-0.2248133104442349	0.6071644392177019	0.6071644392176412	-0.1745252633300866	-0.1499228697058452	-0.02438968394951726	-0.08676783406553923	0.9458390976725842	0.4045558085462866	0.4674202681070949	-2.543788305292068	0.2316469984974245	-0.5823723742751544	0.3184056320767966	-1.52704212103446	-1.52704212103463	2.763862387197754e-05	0.1144337706340744	-0.009508270796528525	0.2480896675920139	-0.2104088149100797	0.02556353572780086	0.0008773657779823152	-0.148334955829433	0.07483279737364694	0.04995890755793343	0.1902992890213192	-9.111450764199807	-22.80084751626324	6.382117683237362	-6.927514885633643	-519.5041262228398	-62.11948086415251	-34.04557549320663	0.6453179953728904	0.7074569148241037	-0.4340506650136478	-1.316273026053158	0.4699173188861276	-0.07560870624847552	1.484343804375433	-0.9126648383208291	-0.9126648383143657	-0.00725799253560857	0.1618994200065239	-0.07923604979939558	0.4840547040345702	-4.00543121395912e-08	7.848004791506618e-07	9.548777238446435e-08	2.66014469631954e-07	1.772339201503404e-07	-1.996120717506515e-07	1.089107615912764e-07
1.52	-0.4398966970956719	-0.05898456494469059	0.7819689052729355	1.090899318269606	-0.4226371130401766	-0.2858965221671488	-0.2215547065389465	0.5918504391178691	0.591850439117848	-0.174524848083343	-0.1487697193187489	-0.02448850158919342	-0.08426250944961056	0.9517833576797501	0.4114802552650924	0.4627830387045355	-2.555766012566317	0.2363425639681997	-0.5827766695921935	0.3332967368917594	-1.535545082762053	-1.535545082762181	6.018466079845937e-05	0.1161787757643058	-0.01023759093673745	0.2529591855470818	-0.2031935650763932	0.02460386907014088	0.0008430362201661708	-0.1467096278923666	0.0730989107272766	0.04846863365318332	0.1846999213117559	-9.444838778647176	-22.1571909582091	6.350255310450116	-6.51461083110848	-515.823740531405	-62.28517585122509	-34.62685330962723	0.5332727473155831	0.6763425449171515	-0.4938181872120068	-1.064803566064785	0.4764305728556803	0.009317494704098754	1.504167462390732	-0.7893598176187304	-0.7893598176187391	0.02252362030489471	0.2050341073226275	-0.06563505960234751	0.497840690640985	-3.994477780305704e-08	8.099153286615233e-07	8.284150482300489e-08	2.672300445560499e-07	1.916807661998901e-07	-1.916463062912813e-07	1.109753104429903e-07
1.53	-0.4303525182964759	-0.0548363949000428	0.7865711617421397	1.065290429628656	-0.4202509248828152	-0.2917244971388322	-0.2181480006178514	0.5764577814694866	0.5764577814694346	-0.1745241433871856	-0.1475995757826724	-0.02459413887030917	-0.0817091118837609	0.9569115216156181	0.4180965718600802	0.4575742390144624	-2.565651158178399	0.2408643000074731	-0.5827420255222558	0.3480064101015815	-1.54276642374392	-1.542766423743857	7.721289818186811e-05	0.117837680278728	-0.01087543583298287	0.2576957482054474	-0.1959236572302274	0.02351144550538946	0.0007886145604303984	-0.1450116753787937	0.07128986150009982	0.04691631648436759	0.1789994096700649	-9.803996339402342	-21.4828486412516	6.31438214308274	-6.033966896946207	-512.1117499088135	-62.40569891691679	-35.18896478333898	0.4814359977870826	0.6457514887541391	-0.5484696772515515	-0.8963045924162839	0.4352808031249094	0.01209196879496684	1.448661666602492	-0.6555407744112109	-0.6555407743826989	-0.009075601364785871	0.1444330593721737	-0.06069025311588942	0.4577414806008644	-3.705927183789761e-08	8.261930201069564e-07	5.621054481642753e-08	2.642892459553451e-07	2.088262385064028e-07	-1.821455954977633e-07	1.136370240865796e-07
1.54	-0.4207612883017096	-0.0506237666350518	0.791118518450973	1.039593502624847	-0.4178204722283364	-0.2975498148486647	-0.2145953390813973	0.5609995065040492	0.5609995065040395	-0.1745233420138261	-0.1464132203144564	-0.02470572081008306	-0.07910911320589428	0.9611935967940636	0.4243718993337348	0.4518030866305055	-2.573373685135934	0.245195463393203	-0.5822452172260661	0.3624878599643753	-1.548668546163411	-1.548668546163159	7.95200627574867e-05	0.1194211622279722	-0.01142652266843756	0.2622794079504706	-0.1886537493841267	0.02241902194068559	0.0007341929016353642	-0.1433137228653257	0.06948081227294566	0.04536399931560281	0.1732988980282695	-10.17393756532763	-20.80750540615068	6.279362974250749	-5.523049522780674	-508.5360997373137	-62.55247142713861	-35.72891306769814	0.3640549958313005	0.6081447206503773	-0.6062887259887816	-0.6322798351553511	0.4383160421468167	0.1017503399545995	1.458522792985188	-0.5255161051437853	-0.5255161051437899	0.01957940574308184	0.1899495942870087	-0.0482834474443783	0.4672601079722873	-3.816683553788559e-08	8.478591691978978e-07	4.932349372645038e-08	2.644691491610441e-07	2.216115835786266e-07	-1.709999403779506e-07	1.139106783171369e-07
